<?xml version="1.0" encoding="UTF-8" standalone="no" ?>
<!DOCTYPE svg PUBLIC "-//W3C//DTD SVG 1.1//EN" "http://www.w3.org/Graphics/SVG/1.1/DTD/svg11.dtd">
<svg xmlns="http://www.w3.org/2000/svg" xmlns:xlink="http://www.w3.org/1999/xlink" version="1.1" width="500" height="200" viewBox="0 0 500 200" xml:space="preserve">
<desc>Created with Fabric.js 5.2.4</desc>
<defs>
</defs>
<g transform="matrix(1 0 0 1 250 100)" id="64615f16-6556-453b-b19c-bf56c7d73505"  >
<rect style="stroke: none; stroke-width: 1; stroke-dasharray: none; stroke-linecap: butt; stroke-dashoffset: 0; stroke-linejoin: miter; stroke-miterlimit: 4; fill: rgb(255,255,255); fill-rule: nonzero; opacity: 1; visibility: hidden;" vector-effect="non-scaling-stroke"  x="-250" y="-100" rx="0" ry="0" width="500" height="200" />
</g>
<g transform="matrix(Infinity NaN NaN Infinity 0 0)" id="3956f3e8-14a9-4bb4-a0c0-5acf72d155fb"  >
</g>
<g transform="matrix(0.8 0 0 0.8 250 100)"  >
<g style="" vector-effect="non-scaling-stroke"   >
		<g transform="matrix(1.33 0 0 1.33 0 0)"  >
<path style="stroke: none; stroke-width: 1; stroke-dasharray: none; stroke-linecap: butt; stroke-dashoffset: 0; stroke-linejoin: miter; stroke-miterlimit: 4; fill: rgb(229,238,231); fill-rule: nonzero; opacity: 1;" vector-effect="non-scaling-stroke"  transform=" translate(-187.56, -187.5)" d="M 47.863281 149.335938 L 327.261719 149.335938 C 337.804688 149.335938 346.351562 157.878906 346.351562 168.417969 L 346.351562 206.582031 C 346.351562 217.121094 337.804688 225.664062 327.261719 225.664062 L 47.863281 225.664062 C 37.320312 225.664062 28.773438 217.121094 28.773438 206.582031 L 28.773438 168.417969 C 28.773438 157.878906 37.320312 149.335938 47.863281 149.335938" stroke-linecap="round" />
</g>
		<g transform="matrix(1.33 0 0 1.33 -167.54 -0.9)"  >
<path style="stroke: none; stroke-width: 1; stroke-dasharray: none; stroke-linecap: butt; stroke-dashoffset: 0; stroke-linejoin: miter; stroke-miterlimit: 4; fill: rgb(72,116,84); fill-rule: nonzero; opacity: 1;" vector-effect="non-scaling-stroke"  transform=" translate(-13.8, 17.17)" d="M 2.765625 0 L 2.765625 -34.34375 L 13.375 -34.34375 C 16.957031 -34.34375 19.679688 -33.546875 21.546875 -31.953125 C 23.410156 -30.359375 24.34375 -28.019531 24.34375 -24.9375 C 24.34375 -23.1875 23.957031 -21.679688 23.1875 -20.421875 C 22.414062 -19.171875 21.363281 -18.253906 20.03125 -17.671875 C 21.570312 -17.234375 22.757812 -16.347656 23.59375 -15.015625 C 24.425781 -13.679688 24.84375 -12.039062 24.84375 -10.09375 C 24.84375 -6.757812 23.925781 -4.242188 22.09375 -2.546875 C 20.257812 -0.847656 17.601562 0 14.125 0 Z M 9.703125 -14.9375 L 9.703125 -5.75 L 14.125 -5.75 C 15.375 -5.75 16.316406 -6.132812 16.953125 -6.90625 C 17.597656 -7.675781 17.921875 -8.769531 17.921875 -10.1875 C 17.921875 -13.269531 16.804688 -14.851562 14.578125 -14.9375 Z M 9.703125 -19.984375 L 13.3125 -19.984375 C 16.03125 -19.984375 17.390625 -21.390625 17.390625 -24.203125 C 17.390625 -25.753906 17.070312 -26.867188 16.4375 -27.546875 C 15.8125 -28.222656 14.789062 -28.5625 13.375 -28.5625 L 9.703125 -28.5625 Z M 9.703125 -19.984375" stroke-linecap="round" />
</g>
		<g transform="matrix(1.33 0 0 1.33 -132.98 -0.9)"  >
<path style="stroke: none; stroke-width: 1; stroke-dasharray: none; stroke-linecap: butt; stroke-dashoffset: 0; stroke-linejoin: miter; stroke-miterlimit: 4; fill: rgb(72,116,84); fill-rule: nonzero; opacity: 1;" vector-effect="non-scaling-stroke"  transform=" translate(-12.63, 17.17)" d="M 20.5 -14.859375 L 9.703125 -14.859375 L 9.703125 -5.75 L 22.484375 -5.75 L 22.484375 0 L 2.765625 0 L 2.765625 -34.34375 L 22.4375 -34.34375 L 22.4375 -28.5625 L 9.703125 -28.5625 L 9.703125 -20.453125 L 20.5 -20.453125 Z M 20.5 -14.859375" stroke-linecap="round" />
</g>
		<g transform="matrix(1.33 0 0 1.33 -99.57 -0.9)"  >
<path style="stroke: none; stroke-width: 1; stroke-dasharray: none; stroke-linecap: butt; stroke-dashoffset: 0; stroke-linejoin: miter; stroke-miterlimit: 4; fill: rgb(72,116,84); fill-rule: nonzero; opacity: 1;" vector-effect="non-scaling-stroke"  transform=" translate(-13.98, 17.17)" d="M 13.9375 -9.4375 L 19.71875 -34.34375 L 27.453125 -34.34375 L 17.546875 0 L 10.328125 0 L 0.5 -34.34375 L 8.1875 -34.34375 Z M 13.9375 -9.4375" stroke-linecap="round" />
</g>
		<g transform="matrix(1.33 0 0 1.33 -63.5 -0.9)"  >
<path style="stroke: none; stroke-width: 1; stroke-dasharray: none; stroke-linecap: butt; stroke-dashoffset: 0; stroke-linejoin: miter; stroke-miterlimit: 4; fill: rgb(72,116,84); fill-rule: nonzero; opacity: 1;" vector-effect="non-scaling-stroke"  transform=" translate(-13.1, 17.17)" d="M 13.109375 -18.921875 L 18.28125 -34.34375 L 25.828125 -34.34375 L 16.625 -12.453125 L 16.625 0 L 9.59375 0 L 9.59375 -12.453125 L 0.375 -34.34375 L 7.921875 -34.34375 Z M 13.109375 -18.921875" stroke-linecap="round" />
</g>
		<g transform="matrix(1.33 0 0 1.33 61.94 -0.9)"  >
<path style="stroke: none; stroke-width: 1; stroke-dasharray: none; stroke-linecap: butt; stroke-dashoffset: 0; stroke-linejoin: miter; stroke-miterlimit: 4; fill: rgb(72,116,84); fill-rule: nonzero; opacity: 1;" vector-effect="non-scaling-stroke"  transform=" translate(-14.17, 17.17)" d="M 26.109375 -3.890625 C 24.773438 -2.441406 23.132812 -1.351562 21.1875 -0.625 C 19.25 0.101562 17.125 0.46875 14.8125 0.46875 C 10.863281 0.46875 7.796875 -0.75 5.609375 -3.1875 C 3.421875 -5.632812 2.296875 -9.195312 2.234375 -13.875 L 2.234375 -20.046875 C 2.234375 -24.785156 3.265625 -28.429688 5.328125 -30.984375 C 7.398438 -33.535156 10.421875 -34.8125 14.390625 -34.8125 C 18.117188 -34.8125 20.929688 -33.890625 22.828125 -32.046875 C 24.722656 -30.210938 25.816406 -27.332031 26.109375 -23.40625 L 19.375 -23.40625 C 19.175781 -25.59375 18.71875 -27.082031 18 -27.875 C 17.28125 -28.664062 16.148438 -29.0625 14.609375 -29.0625 C 12.734375 -29.0625 11.367188 -28.375 10.515625 -27 C 9.671875 -25.632812 9.234375 -23.457031 9.203125 -20.46875 L 9.203125 -14.25 C 9.203125 -11.113281 9.664062 -8.832031 10.59375 -7.40625 C 11.53125 -5.988281 13.070312 -5.28125 15.21875 -5.28125 C 16.582031 -5.28125 17.691406 -5.554688 18.546875 -6.109375 L 19.15625 -6.53125 L 19.15625 -12.828125 L 14.296875 -12.828125 L 14.296875 -18.0625 L 26.109375 -18.0625 Z M 26.109375 -3.890625" stroke-linecap="round" />
</g>
		<g transform="matrix(1.33 0 0 1.33 100 -0.9)"  >
<path style="stroke: none; stroke-width: 1; stroke-dasharray: none; stroke-linecap: butt; stroke-dashoffset: 0; stroke-linejoin: miter; stroke-miterlimit: 4; fill: rgb(72,116,84); fill-rule: nonzero; opacity: 1;" vector-effect="non-scaling-stroke"  transform=" translate(-14.46, 17.17)" d="M 19.15625 -7.03125 L 9.703125 -7.03125 L 7.859375 0 L 0.515625 0 L 11.25 -34.34375 L 17.59375 -34.34375 L 28.40625 0 L 21 0 Z M 11.203125 -12.8125 L 17.625 -12.8125 L 14.40625 -25.046875 Z M 11.203125 -12.8125" stroke-linecap="round" />
</g>
		<g transform="matrix(1.33 0 0 1.33 136.65 -0.9)"  >
<path style="stroke: none; stroke-width: 1; stroke-dasharray: none; stroke-linecap: butt; stroke-dashoffset: 0; stroke-linejoin: miter; stroke-miterlimit: 4; fill: rgb(72,116,84); fill-rule: nonzero; opacity: 1;" vector-effect="non-scaling-stroke"  transform=" translate(-13.1, 17.17)" d="M 25 -28.5625 L 16.515625 -28.5625 L 16.515625 0 L 9.546875 0 L 9.546875 -28.5625 L 1.203125 -28.5625 L 1.203125 -34.34375 L 25 -34.34375 Z M 25 -28.5625" stroke-linecap="round" />
</g>
		<g transform="matrix(1.33 0 0 1.33 170.98 -0.9)"  >
<path style="stroke: none; stroke-width: 1; stroke-dasharray: none; stroke-linecap: butt; stroke-dashoffset: 0; stroke-linejoin: miter; stroke-miterlimit: 4; fill: rgb(72,116,84); fill-rule: nonzero; opacity: 1;" vector-effect="non-scaling-stroke"  transform=" translate(-12.63, 17.17)" d="M 20.5 -14.859375 L 9.703125 -14.859375 L 9.703125 -5.75 L 22.484375 -5.75 L 22.484375 0 L 2.765625 0 L 2.765625 -34.34375 L 22.4375 -34.34375 L 22.4375 -28.5625 L 9.703125 -28.5625 L 9.703125 -20.453125 L 20.5 -20.453125 Z M 20.5 -14.859375" stroke-linecap="round" />
</g>
		<g transform="matrix(1.33 0 0 1.33 -2.54 -5.44)" clip-path="url(#CLIPPATH_3)"  >
<clipPath id="CLIPPATH_3" >
	<path transform="matrix(1 0 0 1 0 0.08) translate(-185.66, -183.5)" id="ee0d7d6dc9" d="M 154.53125 161 L 216.78125 161 L 216.78125 206 L 154.53125 206 Z M 154.53125 161" stroke-linecap="round" />
</clipPath>
<path style="stroke: none; stroke-width: 1; stroke-dasharray: none; stroke-linecap: butt; stroke-dashoffset: 0; stroke-linejoin: miter; stroke-miterlimit: 4; fill: rgb(166,166,166); fill-rule: nonzero; opacity: 1;" vector-effect="non-scaling-stroke"  transform=" translate(-185.66, -183.42)" d="M 160.757812 192.699219 C 160.757812 179.03125 171.902344 167.949219 185.65625 167.949219 C 199.410156 167.949219 210.554688 179.03125 210.554688 192.699219 L 210.554688 201.980469 C 210.554688 203.691406 211.945312 205.074219 213.667969 205.074219 C 215.386719 205.074219 216.777344 203.691406 216.777344 201.980469 L 216.777344 192.699219 C 216.777344 175.617188 202.839844 161.761719 185.65625 161.761719 C 168.472656 161.761719 154.535156 175.617188 154.535156 192.699219 L 154.535156 201.980469 C 154.535156 203.691406 155.925781 205.074219 157.644531 205.074219 C 159.367188 205.074219 160.757812 203.691406 160.757812 201.980469 Z M 179.433594 192.699219 C 179.433594 189.289062 182.222656 186.511719 185.65625 186.511719 C 189.089844 186.511719 191.878906 189.289062 191.878906 192.699219 L 191.878906 201.980469 C 191.878906 203.691406 193.273438 205.074219 194.992188 205.074219 C 196.714844 205.074219 198.105469 203.691406 198.105469 201.980469 L 198.105469 192.699219 C 198.105469 185.863281 192.53125 180.324219 185.65625 180.324219 C 178.78125 180.324219 173.207031 185.863281 173.207031 192.699219 L 173.207031 201.980469 C 173.207031 203.691406 174.597656 205.074219 176.320312 205.074219 C 178.042969 205.074219 179.433594 203.691406 179.433594 201.980469 Z M 179.433594 192.699219" stroke-linecap="round" />
</g>
		<g transform="matrix(1.33 0 0 1.33 -2.54 0.74)" clip-path="url(#CLIPPATH_4)"  >
<clipPath id="CLIPPATH_4" >
	<path transform="matrix(1 0 0 1 -0.02 0.04) translate(-22.64, -18.1)" id="d757e83df4" clip-path="url(#undefined)" d="M 0.679688 1 L 44.601562 1 L 44.601562 35.199219 L 0.679688 35.199219 Z M 0.679688 1" stroke-linecap="round" />
</clipPath>
<path style="stroke: none; stroke-width: 1; stroke-dasharray: none; stroke-linecap: butt; stroke-dashoffset: 0; stroke-linejoin: miter; stroke-miterlimit: 4; fill: rgb(166,166,166); fill-rule: nonzero; opacity: 1;" vector-effect="non-scaling-stroke"  transform=" translate(-22.66, -18.06)" d="M 22.65625 7.230469 C 14.058594 7.230469 7.09375 14.152344 7.09375 22.699219 L 7.09375 31.980469 C 7.09375 33.691406 5.703125 35.074219 3.984375 35.074219 C 2.261719 35.074219 0.871094 33.691406 0.871094 31.980469 L 0.871094 22.699219 C 0.871094 10.742188 10.625 1.042969 22.65625 1.042969 C 34.6875 1.042969 44.441406 10.742188 44.441406 22.699219 L 44.441406 31.980469 C 44.441406 33.691406 43.050781 35.074219 41.328125 35.074219 C 39.609375 35.074219 38.21875 33.691406 38.21875 31.980469 L 38.21875 22.699219 C 38.21875 14.152344 31.253906 7.230469 22.65625 7.230469 Z M 22.65625 7.230469" stroke-linecap="round" />
</g>
</g>
</g>
</svg>